# Blender v2.78 (sub 0) OBJ File: '20.blend'
# www.blender.org
mtllib Bowl_01.mtl
o Circle.006
v 0.000000 0.000000 -2.828968
v -2.000382 0.000000 -2.000382
v -2.828968 0.000000 0.000000
v -2.000382 0.000000 2.000382
v 0.000000 0.000000 2.828968
v 2.000382 0.000000 2.000382
v 2.828968 0.000000 -0.000000
v 2.000382 0.000000 -2.000382
v 0.000000 0.594548 -2.828968
v -2.000382 0.594548 -2.000382
v -2.828968 0.594548 0.000000
v -2.000382 0.594548 2.000382
v 0.000000 0.594548 2.828968
v 2.000382 0.594548 2.000382
v 2.828968 0.594548 -0.000000
v 2.000382 0.594548 -2.000382
v 0.000000 1.635008 -4.162569
v -2.943381 1.635008 -2.943381
v -4.162569 1.635008 0.000000
v -2.943381 1.635008 2.943381
v 0.000000 1.635008 4.162569
v 2.943381 1.635008 2.943380
v 4.162569 1.635008 -0.000000
v 2.943381 1.635008 -2.943380
v 0.000000 2.873650 -4.734558
v -3.347838 2.873650 -3.347838
v -4.734558 2.873650 0.000000
v -3.347838 2.873650 3.347838
v 0.000000 2.873650 4.734558
v 3.347839 2.873650 3.347837
v 4.734558 2.873650 -0.000000
v 3.347839 2.873650 -3.347838
v -0.000000 4.310476 -4.992664
v -3.530346 4.310476 -3.530346
v -4.992663 4.310476 0.000000
v -3.530346 4.310476 3.530346
v 0.000000 4.310476 4.992664
v 3.530347 4.310476 3.530345
v 4.992664 4.310476 -0.000000
v 3.530347 4.310476 -3.530346
v 0.000000 4.294993 -4.626758
v -3.271612 4.294993 -3.271612
v -4.626757 4.294993 0.000000
v -3.271612 4.294993 3.271612
v 0.000000 4.294993 4.626758
v 3.271612 4.294993 3.271611
v 4.626758 4.294993 -0.000000
v 3.271612 4.294993 -3.271611
v 0.000000 2.721433 -4.374193
v -3.093022 2.721433 -3.093021
v -4.374193 2.721433 0.000000
v -3.093022 2.721433 3.093021
v 0.000000 2.721433 4.374193
v 3.093023 2.721433 3.093020
v 4.374194 2.721433 -0.000000
v 3.093023 2.721433 -3.093021
v 0.000000 1.563589 -3.761569
v -2.659831 1.563589 -2.659831
v -3.761569 1.563589 0.000000
v -2.659831 1.563589 2.659831
v 0.000000 1.563589 3.761569
v 2.659832 1.563589 2.659830
v 3.761569 1.563589 -0.000000
v 2.659832 1.563589 -2.659831
v 0.000000 0.472544 -2.427404
v -1.716434 0.472544 -1.716434
v -2.427404 0.472544 0.000000
v -1.716434 0.472544 1.716434
v 0.000000 0.472544 2.427404
v 1.716434 0.472544 1.716434
v 2.427405 0.472544 -0.000000
v 1.716434 0.472544 -1.716434
v 0.000000 0.525512 -0.000000
v 2.259202 0.000000 -0.000000
v 1.597497 0.000000 1.597497
v 0.000000 0.000000 2.259202
v -1.597497 0.000000 1.597497
v -2.259202 0.000000 0.000000
v -1.597497 0.000000 -1.597497
v 0.000000 0.000000 -2.259202
v 1.597497 0.000000 -1.597497
v 2.259202 0.385970 -0.000000
v 1.597497 0.385970 1.597497
v 0.000000 0.385970 2.259202
v -1.597497 0.385970 1.597497
v -2.259202 0.385970 0.000000
v -1.597497 0.385970 -1.597497
v 0.000000 0.385970 -2.259202
v 1.597497 0.385970 -1.597497
v 0.000000 0.385970 0.000000
vn 0.3827 0.0000 -0.9239
vn 0.9239 0.0000 0.3827
vn -0.3827 0.0000 0.9239
vn -0.9239 0.0000 -0.3827
vn 0.9239 0.0000 -0.3827
vn 0.3827 0.0000 0.9239
vn -0.9239 0.0000 0.3827
vn -0.3827 0.0000 -0.9239
vn 0.5961 -0.7640 -0.2469
vn 0.2469 -0.7640 0.5961
vn -0.5961 -0.7640 0.2469
vn -0.2469 -0.7640 -0.5961
vn 0.2469 -0.7640 -0.5961
vn 0.5961 -0.7640 0.2469
vn -0.2469 -0.7640 0.5961
vn -0.5961 -0.7640 -0.2469
vn -0.3775 -0.1637 -0.9114
vn 0.3775 -0.1637 -0.9114
vn 0.9114 -0.1637 0.3775
vn -0.3775 -0.1637 0.9114
vn -0.9114 -0.1637 -0.3775
vn 0.9114 -0.1637 -0.3775
vn 0.3775 -0.1637 0.9114
vn -0.9114 -0.1637 0.3775
vn -0.0423 0.9990 0.0175
vn -0.0175 0.9990 -0.0423
vn 0.0423 0.9990 -0.0175
vn 0.0175 0.9990 0.0423
vn -0.0175 0.9990 0.0423
vn -0.0423 0.9990 -0.0175
vn 0.0175 0.9990 -0.0423
vn 0.0423 0.9990 0.0175
vn 0.0000 -1.0000 0.0000
vn 0.8498 -0.3924 0.3520
vn -0.3520 -0.3924 0.8498
vn -0.8498 -0.3924 -0.3520
vn 0.8498 -0.3924 -0.3520
vn 0.3520 -0.3924 0.8498
vn -0.8498 -0.3924 0.3520
vn -0.3520 -0.3924 -0.8498
vn 0.3520 -0.3924 -0.8498
vn 0.9139 0.1467 0.3785
vn -0.9139 0.1467 0.3785
vn -0.3785 0.1467 -0.9139
vn 0.9139 0.1467 -0.3785
vn 0.3785 0.1467 0.9139
vn -0.3785 0.1467 0.9139
vn -0.9139 0.1467 -0.3785
vn 0.3785 0.1467 -0.9139
vn -0.3438 0.4392 0.8300
vn -0.8300 0.4392 -0.3438
vn 0.3438 0.4392 -0.8300
vn 0.8300 0.4392 0.3438
vn -0.8300 0.4392 0.3438
vn -0.3438 0.4392 -0.8300
vn 0.8300 0.4392 -0.3438
vn 0.3438 0.4392 0.8300
vn 0.6123 0.7488 -0.2536
vn 0.2536 0.7488 0.6123
vn -0.2536 0.7488 0.6123
vn -0.6123 0.7488 -0.2536
vn 0.2536 0.7488 -0.6123
vn 0.6123 0.7488 0.2536
vn -0.6123 0.7488 0.2536
vn -0.2536 0.7488 -0.6123
vn 0.0218 0.9997 -0.0090
vn 0.0090 0.9997 0.0218
vn -0.0218 0.9997 0.0090
vn -0.0090 0.9997 -0.0218
vn 0.0090 0.9997 -0.0218
vn 0.0218 0.9997 0.0090
vn -0.0090 0.9997 0.0218
vn -0.0218 0.9997 -0.0090
usemtl 8BC34A
s off
f 8//1 1//1 9//1 16//1
f 6//2 7//2 15//2 14//2
f 4//3 5//3 13//3 12//3
f 2//4 3//4 11//4 10//4
f 7//5 8//5 16//5 15//5
f 5//6 6//6 14//6 13//6
f 3//7 4//7 12//7 11//7
f 1//8 2//8 10//8 9//8
f 15//9 16//9 24//9 23//9
f 13//10 14//10 22//10 21//10
f 11//11 12//11 20//11 19//11
f 9//12 10//12 18//12 17//12
f 16//13 9//13 17//13 24//13
f 14//14 15//14 23//14 22//14
f 12//15 13//15 21//15 20//15
f 10//16 11//16 19//16 18//16
f 25//17 26//17 34//17 33//17
f 32//18 25//18 33//18 40//18
f 30//19 31//19 39//19 38//19
f 28//20 29//20 37//20 36//20
f 26//21 27//21 35//21 34//21
f 31//22 32//22 40//22 39//22
f 29//23 30//23 38//23 37//23
f 27//24 28//24 36//24 35//24
f 39//25 40//25 48//25 47//25
f 37//26 38//26 46//26 45//26
f 35//27 36//27 44//27 43//27
f 33//28 34//28 42//28 41//28
f 40//29 33//29 41//29 48//29
f 38//30 39//30 47//30 46//30
f 36//31 37//31 45//31 44//31
f 34//32 35//32 43//32 42//32
f 1//33 8//33 81//33 80//33
f 7//33 6//33 75//33 74//33
f 5//33 4//33 77//33 76//33
f 3//33 2//33 79//33 78//33
f 8//33 7//33 74//33 81//33
f 6//33 5//33 76//33 75//33
f 4//33 3//33 78//33 77//33
f 2//33 1//33 80//33 79//33
f 77//5 78//5 86//5 85//5
f 75//8 76//8 84//8 83//8
f 81//7 74//7 82//7 89//7
f 79//6 80//6 88//6 87//6
f 78//2 79//2 87//2 86//2
f 76//1 77//1 85//1 84//1
f 74//4 75//4 83//4 82//4
f 80//3 81//3 89//3 88//3
f 89//33 82//33 90//33
f 86//33 87//33 90//33
f 84//33 85//33 90//33
f 82//33 83//33 90//33
f 88//33 89//33 90//33
f 87//33 88//33 90//33
f 85//33 86//33 90//33
f 83//33 84//33 90//33
usemtl F44336
f 22//34 23//34 31//34 30//34
f 20//35 21//35 29//35 28//35
f 18//36 19//36 27//36 26//36
f 23//37 24//37 32//37 31//37
f 21//38 22//38 30//38 29//38
f 19//39 20//39 28//39 27//39
f 17//40 18//40 26//40 25//40
f 24//41 17//41 25//41 32//41
usemtl FFFFFF
f 42//42 43//42 51//42 50//42
f 47//43 48//43 56//43 55//43
f 45//44 46//44 54//44 53//44
f 43//45 44//45 52//45 51//45
f 41//46 42//46 50//46 49//46
f 48//47 41//47 49//47 56//47
f 46//48 47//48 55//48 54//48
f 44//49 45//49 53//49 52//49
f 56//50 49//50 57//50 64//50
f 54//51 55//51 63//51 62//51
f 52//52 53//52 61//52 60//52
f 50//53 51//53 59//53 58//53
f 55//54 56//54 64//54 63//54
f 53//55 54//55 62//55 61//55
f 51//56 52//56 60//56 59//56
f 49//57 50//57 58//57 57//57
f 59//58 60//58 68//58 67//58
f 57//59 58//59 66//59 65//59
f 64//60 57//60 65//60 72//60
f 62//61 63//61 71//61 70//61
f 60//62 61//62 69//62 68//62
f 58//63 59//63 67//63 66//63
f 63//64 64//64 72//64 71//64
f 61//65 62//65 70//65 69//65
f 71//66 72//66 73//66
f 69//67 70//67 73//67
f 67//68 68//68 73//68
f 65//69 66//69 73//69
f 72//70 65//70 73//70
f 70//71 71//71 73//71
f 68//72 69//72 73//72
f 66//73 67//73 73//73
