# Blender v2.79 (sub 0) OBJ File: 'mashroom.blend'
# www.blender.org
mtllib mashroom.mtl
o Sphere_Sphere.001
v 0.442238 1.472817 -0.706685
v 0.228029 1.581712 -0.254447
v 0.462044 1.589291 -0.279576
v 0.662965 1.505255 -0.332855
v 0.797089 1.301130 -0.484807
v 0.364420 0.913906 -0.258118
v 0.210587 1.581183 -0.096147
v 0.422555 1.584787 0.024970
v 0.626643 1.503464 0.095580
v 0.828772 1.329190 0.041484
v 0.358681 0.894622 -0.035126
v 0.103212 1.574955 0.021469
v 0.212053 1.559031 0.246586
v 0.345154 1.496457 0.424067
v 0.557801 1.310181 0.482393
v 0.221047 0.880521 0.145929
v -0.052280 1.556847 0.052647
v -0.086543 1.526065 0.297846
v -0.068160 1.433366 0.514653
v 0.075277 1.273528 0.688388
v -0.001142 0.875370 0.212640
v -0.198269 1.553021 -0.012583
v -0.361419 1.463660 0.161572
v -0.468430 1.432302 0.334108
v -0.446436 1.228499 0.564461
v -0.217315 0.855467 0.131936
v -0.275749 1.529590 -0.152946
v -0.517857 1.533870 -0.099823
v -0.702688 1.398710 -0.024091
v -0.802650 1.208111 0.152279
v -0.350987 0.847543 -0.062511
v -0.260439 1.553292 -0.308759
v -0.476344 1.502940 -0.406665
v -0.673210 1.399167 -0.452623
v -0.845980 1.206458 -0.384376
v -0.353955 0.861023 -0.288543
v -0.154870 1.577339 -0.424515
v -0.263837 1.509545 -0.630257
v -0.384519 1.398685 -0.784969
v -0.552605 1.205677 -0.842612
v -0.208676 0.864267 -0.473806
v 0.003462 1.565530 -0.458807
v 0.037678 1.545293 -0.684346
v 0.042550 1.424577 -0.881869
v -0.047442 1.233024 -1.034902
v 0.014820 0.855506 -0.539707
v 0.148346 1.581297 -0.392457
v 0.315166 1.573195 -0.550621
v 0.469516 1.281737 -0.889385
v 0.236687 0.895715 -0.453844
v 0.976068 1.121039 -0.145587
v 0.831682 1.168921 -0.677113
v 0.804176 1.069967 0.380235
v 0.334568 1.037471 0.732835
v -0.300447 1.000008 0.670749
v -0.761645 0.976472 0.398089
v -0.953223 1.035428 -0.214155
v -0.752870 0.961206 -0.755982
v -0.190190 1.104504 -1.112378
v 0.391758 1.120806 -1.042938
v 0.333337 -0.336971 -0.428966
v 0.206013 -0.313364 -0.601718
v 0.333337 -0.365495 -0.220234
v 0.206013 -0.388296 -0.053380
v -0.000000 -0.397126 0.011235
v -0.206014 -0.387899 -0.056287
v -0.333337 -0.365307 -0.221614
v -0.333337 -0.336581 -0.431820
v -0.206014 -0.313364 -0.601718
v -0.000000 -0.304301 -0.668039
v 0.397058 0.470662 0.006438
v 0.442934 0.036372 -0.064593
v 0.449870 0.024650 -0.351773
v 0.463500 0.452856 -0.282359
v 0.092284 0.434283 -0.691121
v 0.016422 0.002997 -0.679808
v -0.258398 0.001688 -0.597940
v -0.189574 0.434371 -0.658787
v -0.460366 0.463362 -0.206346
v -0.439468 0.021088 -0.091773
v -0.276554 0.034792 0.136229
v -0.355023 0.465636 0.049651
v 0.173851 0.471932 0.186907
v 0.268800 0.042970 0.162302
v 0.348910 0.459116 -0.541138
v 0.286957 0.011704 -0.585317
v -0.395882 0.449939 -0.473579
v -0.432532 0.008471 -0.372400
v -0.114355 0.472896 0.182870
v -0.006072 0.048247 0.195980
v -0.026558 1.599215 -0.204023
vt 0.492700 0.272322
vt 0.401818 0.180134
vt 0.454326 0.138830
vt 0.334805 0.273420
vt 0.280965 0.273588
vt 0.325001 0.241493
vt 0.546164 0.271746
vt 0.491830 0.108397
vt 0.382242 0.272366
vt 0.363746 0.210800
vt 0.430454 0.272028
vt 0.354967 0.000163
vt 0.298034 0.221388
vt 0.311995 0.171762
vt 0.324464 0.123377
vt 0.338161 0.066719
vt 0.229422 0.124392
vt 0.207696 0.068874
vt 0.264110 0.221049
vt 0.179965 0.000163
vt 0.246791 0.170506
vt 0.192989 0.208400
vt 0.150468 0.176963
vt 0.102475 0.145140
vt 0.236187 0.240885
vt 0.045927 0.105509
vt 0.000163 0.265880
vt 0.170971 0.272632
vt 0.127599 0.269898
vt 0.066091 0.267219
vt 0.225818 0.273562
vt 0.100428 0.391968
vt 0.236652 0.306061
vt 0.042493 0.427519
vt 0.194482 0.332541
vt 0.151475 0.361109
vt 0.244560 0.373206
vt 0.226441 0.418575
vt 0.204256 0.471992
vt 0.263576 0.325341
vt 0.182556 0.522173
vt 0.336851 0.478667
vt 0.355062 0.546256
vt 0.310749 0.373931
vt 0.323051 0.421676
vt 0.296828 0.324590
vt 0.450867 0.404311
vt 0.324616 0.305333
vt 0.486474 0.431385
vt 0.363031 0.334036
vt 0.403389 0.365611
vt 0.313676 0.671329
vt 0.269793 0.578205
vt 0.325662 0.579139
vt 0.792698 0.308239
vt 0.960557 0.365188
vt 0.840660 0.449235
vt 0.696134 0.449235
vt 0.737774 0.308222
vt 0.577589 0.364747
vt 0.693335 0.276186
vt 0.546489 0.225988
vt 0.677911 0.223495
vt 0.694669 0.171091
vt 0.576133 0.087538
vt 0.735519 0.138484
vt 0.688492 0.000163
vt 0.836078 0.004798
vt 0.790691 0.138506
vt 0.835253 0.171004
vt 0.960274 0.087253
vt 0.999837 0.225930
vt 0.852877 0.223182
vt 0.836805 0.276011
vt 0.802971 0.576970
vt 0.818914 0.626095
vt 0.671717 0.576925
vt 0.442101 0.652826
vt 0.497168 0.569160
vt 0.511054 0.649885
vt 0.017149 0.654081
vt 0.099661 0.560476
vt 0.083512 0.672732
vt 0.255166 0.681022
vt 0.214276 0.574404
vt 0.383139 0.577996
vt 0.440221 0.575348
vt 0.581272 0.651363
vt 0.610449 0.546581
vt 0.655126 0.652659
vt 0.198728 0.684550
vt 0.157148 0.567652
vt 0.375848 0.660753
vt 0.554092 0.560454
vt 0.142416 0.683185
vt 0.084849 0.868187
vt 0.136144 0.776097
vt 0.145937 0.870766
vt 0.069730 0.770823
vt 0.508498 0.857765
vt 0.575704 0.757573
vt 0.571209 0.866062
vt 0.511028 0.749081
vt 0.385022 0.871145
vt 0.326251 0.762540
vt 0.387591 0.758877
vt 0.200870 0.775712
vt 0.205702 0.873200
vt 0.645149 0.770305
vt 0.631470 0.879089
vt 0.446361 0.865221
vt 0.448837 0.749289
vt 0.265010 0.871232
vt 0.264185 0.771786
vt 0.026779 0.872775
vt 0.325101 0.870231
vt 0.802937 0.675209
vt 0.655451 0.626039
vt 0.761355 0.705552
vt 0.670983 0.675163
vt 0.711125 0.705534
vt 0.711512 0.546581
vt 0.762097 0.546599
vt 0.045972 0.546585
vt 0.000163 0.767162
vn 0.5370 0.7016 -0.4684
vn 0.0610 0.9974 -0.0382
vn 0.3241 0.8058 -0.4957
vn -0.0366 0.9986 -0.0395
vn 0.3120 0.9129 -0.2634
vn 0.8496 0.4934 -0.1864
vn -0.0237 0.9997 0.0117
vn 0.3597 0.9325 0.0344
vn 0.6387 0.7654 -0.0793
vn 0.0708 0.9974 0.0111
vn 0.5520 0.7465 0.3715
vn 0.0365 0.9956 0.0861
vn 0.7269 0.6189 0.2977
vn -0.0316 0.9958 0.0857
vn 0.1982 0.9615 0.1904
vn -0.0530 0.9166 0.3964
vn 0.1862 0.7948 0.5775
vn -0.0838 0.9845 0.1541
vn 0.4467 0.6133 0.6514
vn -0.0901 0.9897 0.1117
vn -0.1014 0.0754 0.9920
vn -0.2602 0.9619 0.0844
vn -0.1826 0.8983 0.3996
vn -0.2323 0.6126 0.7554
vn -0.0941 0.9837 0.1529
vn -0.6516 0.5362 0.5366
vn -0.2712 0.9625 -0.0110
vn -0.4210 0.6240 0.6583
vn -0.1480 0.9294 0.3382
vn -0.2111 0.9764 0.0465
vn -0.4605 0.8871 -0.0307
vn -0.8565 0.5117 0.0676
vn -0.2437 0.9621 0.1224
vn -0.9372 0.1618 0.3089
vn -0.0046 0.9949 -0.1009
vn -0.7804 0.5122 -0.3587
vn -0.1684 0.9770 -0.1312
vn -0.3787 0.8646 -0.3302
vn -0.7333 0.4909 -0.4703
vn -0.2012 0.9793 0.0199
vn -0.3281 0.5211 -0.7879
vn 0.0467 0.9910 -0.1255
vn -0.5577 0.1689 -0.8126
vn -0.1557 0.9597 -0.2338
vn -0.1627 0.8577 -0.4877
vn 0.1235 0.8481 -0.5153
vn 0.1743 0.5634 -0.8076
vn -0.0453 0.9896 -0.1362
vn 0.0947 0.4347 -0.8956
vn -0.0500 0.9934 -0.1036
vn 0.7024 0.5417 -0.4617
vn 0.7514 0.2278 -0.6193
vn 0.0295 0.9994 -0.0201
vn 0.3819 0.8870 -0.2596
vn 0.7783 0.6227 -0.0801
vn -0.0324 0.9995 -0.0002
vn 0.3997 0.9143 0.0654
vn 0.8581 0.5081 0.0749
vn 0.6255 0.5554 0.5479
vn 0.8427 0.1260 0.5234
vn -0.0310 0.9992 0.0246
vn 0.2450 0.9086 0.3383
vn -0.0412 0.9322 0.3596
vn 0.1305 0.4288 0.8939
vn 0.3919 0.0107 0.9199
vn -0.0922 0.9891 0.1146
vn -0.2446 0.2761 0.9295
vn -0.1679 0.9321 0.3210
vn -0.2356 0.9714 0.0304
vn -0.2945 0.7016 0.6489
vn -0.6468 0.6723 0.3600
vn -0.7412 -0.1716 0.6490
vn -0.0167 0.9877 -0.1557
vn -0.3981 0.7979 0.4526
vn -0.6248 0.7639 -0.1615
vn -0.7525 0.6566 -0.0511
vn -0.8155 0.5751 0.0641
vn -0.2760 0.9539 0.1180
vn -0.8422 -0.0085 -0.5392
vn -0.3466 0.9299 -0.1229
vn -0.3738 0.8670 -0.3297
vn -0.5739 0.6490 -0.4995
vn -0.2030 0.6676 -0.7163
vn -0.2848 0.7067 -0.6476
vn 0.0567 0.9951 -0.0807
vn -0.1915 0.8354 -0.5153
vn 0.1322 0.8792 -0.4578
vn 0.2189 0.6905 -0.6895
vn 0.1507 0.6434 -0.7506
vn -0.0629 0.9931 -0.0987
vn 0.9535 -0.2986 -0.0408
vn 0.3125 -0.9347 -0.1691
vn 0.2612 -0.9573 0.1240
vn 0.0945 -0.9661 0.2401
vn -0.0074 -0.9661 0.2580
vn -0.0731 -0.9754 0.2079
vn -0.2800 -0.9600 -0.0048
vn -0.1186 -0.9868 -0.1103
vn -0.0155 -0.9190 -0.3940
vn 0.2748 -0.9201 -0.2792
vn 0.2958 -0.9262 -0.2339
vn -0.0000 -0.9908 -0.1354
vn -0.2852 -0.0359 -0.9578
vn -0.7431 -0.3761 0.5535
vn 0.7524 -0.4061 0.5187
vn 0.3039 -0.0527 -0.9512
vn -0.9652 -0.2611 -0.0121
vn 0.2834 -0.4616 0.8406
vn 0.7831 -0.1647 -0.5997
vn -0.7874 -0.1223 -0.6042
vn -0.1816 -0.3789 0.9074
vn -0.8128 -0.1436 0.5646
vn -0.4799 -0.0954 0.8721
vn -0.2761 0.1242 -0.9531
vn -0.6685 -0.1130 -0.7351
vn 0.8953 0.2130 -0.3913
vn 0.9102 -0.0860 -0.4051
vn -0.3264 -0.2005 0.9237
vn 0.1210 -0.0301 0.9922
vn -0.7849 0.0831 -0.6140
vn -0.9679 -0.1049 -0.2283
vn 0.4626 0.2866 -0.8390
vn 0.3310 -0.0829 -0.9400
vn 0.6287 0.0054 0.7776
vn 0.6274 -0.0607 0.7764
vn -0.9998 0.0147 0.0140
vn -0.8124 -0.0309 0.5823
vn -0.1079 0.3187 -0.9417
vn -0.1132 -0.1207 -0.9862
vn 0.9702 0.1090 0.2165
vn 0.9990 -0.0359 0.0256
vn 0.9607 -0.2753 0.0344
vn 0.4312 -0.8998 -0.0667
vn 0.3478 -0.9373 0.0227
vn 0.2243 -0.9514 0.2110
vn 0.0292 -0.9595 0.2801
vn -0.2549 -0.9431 0.2137
vn -0.3509 -0.9350 -0.0512
vn -0.2759 -0.9607 0.0296
vn -0.0879 -0.9819 -0.1677
vn 0.0755 -0.9043 -0.4202
vn 0.4499 -0.8673 -0.2130
vn -0.3056 -0.0201 -0.9520
vn -0.7558 -0.3855 0.5294
vn 0.7251 -0.3896 0.5678
vn 0.3305 -0.0347 -0.9432
vn -0.9621 -0.2702 -0.0369
vn 0.1053 -0.3798 0.9191
vn 0.8154 -0.1430 -0.5609
vn -0.7859 -0.1234 -0.6059
vn -0.2978 -0.4364 0.8490
vn -0.4744 0.2527 0.8433
vn -0.2204 0.1534 0.9633
vn -0.5706 0.4678 -0.6750
vn -0.7903 0.0397 -0.6114
vn 0.9772 0.2077 0.0431
vn 0.8166 0.0669 -0.5733
vn -0.0135 0.1284 0.9916
vn -0.0139 0.0273 0.9995
vn -0.8861 0.4002 -0.2339
vn -0.9967 0.0763 -0.0281
vn 0.7830 0.3092 -0.5397
vn 0.5034 0.0156 -0.8639
vn 0.2857 0.0629 0.9563
vn 0.7875 0.1399 0.6003
vn -0.8802 0.3098 0.3595
vn -0.9236 0.0547 0.3796
vn 0.2763 0.3697 -0.8871
vn -0.2855 0.0251 -0.9580
vn 0.7844 0.1305 0.6064
vn 0.9733 0.0669 0.2198
g Sphere_Sphere.001_Material.016
usemtl Material.016
s off
f 49/1/1 4/2/1 5/3/1
f 47/4/2 91/5/2 2/6/2
f 60/7/3 5/3/3 52/8/3
f 48/9/4 2/6/4 3/10/4
f 1/11/5 3/10/5 4/2/5
f 5/3/6 51/12/6 52/8/6
f 3/10/7 7/13/7 8/14/7
f 4/2/8 8/14/8 9/15/8
f 5/3/9 9/15/9 10/16/9
f 2/6/10 91/5/10 7/13/10
f 10/16/11 14/17/11 15/18/11
f 7/13/12 91/5/12 12/19/12
f 51/12/13 15/18/13 53/20/13
f 8/14/14 12/19/14 13/21/14
f 9/15/15 13/21/15 14/17/15
f 14/17/16 18/22/16 19/23/16
f 15/18/17 19/23/17 20/24/17
f 12/19/18 91/5/18 17/25/18
f 53/20/19 20/24/19 54/26/19
f 13/21/20 17/25/20 18/22/20
f 20/24/21 55/27/21 54/26/21
f 17/25/22 23/28/22 18/22/22
f 18/22/23 24/29/23 19/23/23
f 19/23/24 25/30/24 20/24/24
f 17/25/25 91/5/25 22/31/25
f 24/29/26 30/32/26 25/30/26
f 22/31/27 91/5/27 27/33/27
f 55/27/28 30/32/28 56/34/28
f 22/31/29 28/35/29 23/28/29
f 23/28/30 29/36/30 24/29/30
f 29/36/31 33/37/31 34/38/31
f 29/36/32 35/39/32 30/32/32
f 27/33/33 91/5/33 32/40/33
f 30/32/34 57/41/34 56/34/34
f 27/33/35 33/37/35 28/35/35
f 57/41/36 40/42/36 58/43/36
f 32/40/37 38/44/37 33/37/37
f 33/37/38 39/45/38 34/38/38
f 34/38/39 40/42/39 35/39/39
f 32/40/40 91/5/40 37/46/40
f 39/45/41 45/47/41 40/42/41
f 37/46/42 91/5/42 42/48/42
f 40/42/43 59/49/43 58/43/43
f 37/46/44 43/50/44 38/44/44
f 38/44/45 44/51/45 39/45/45
f 43/50/46 1/11/46 44/51/46
f 44/51/47 49/1/47 45/47/47
f 42/48/48 91/5/48 47/4/48
f 45/47/49 60/7/49 59/49/49
f 43/50/50 47/4/50 48/9/50
f 49/1/51 1/11/51 4/2/51
f 60/7/52 49/1/52 5/3/52
f 48/9/53 47/4/53 2/6/53
f 1/11/54 48/9/54 3/10/54
f 5/3/55 10/16/55 51/12/55
f 3/10/56 2/6/56 7/13/56
f 4/2/57 3/10/57 8/14/57
f 5/3/58 4/2/58 9/15/58
f 10/16/59 9/15/59 14/17/59
f 51/12/60 10/16/60 15/18/60
f 8/14/61 7/13/61 12/19/61
f 9/15/62 8/14/62 13/21/62
f 14/17/63 13/21/63 18/22/63
f 15/18/64 14/17/64 19/23/64
f 53/20/65 15/18/65 20/24/65
f 13/21/66 12/19/66 17/25/66
f 20/24/67 25/30/67 55/27/67
f 17/25/68 22/31/68 23/28/68
f 18/22/69 23/28/69 24/29/69
f 19/23/70 24/29/70 25/30/70
f 24/29/71 29/36/71 30/32/71
f 55/27/72 25/30/72 30/32/72
f 22/31/73 27/33/73 28/35/73
f 23/28/74 28/35/74 29/36/74
f 29/36/75 28/35/75 33/37/75
f 29/36/76 34/38/76 35/39/76
f 30/32/77 35/39/77 57/41/77
f 27/33/78 32/40/78 33/37/78
f 57/41/79 35/39/79 40/42/79
f 32/40/80 37/46/80 38/44/80
f 33/37/81 38/44/81 39/45/81
f 34/38/82 39/45/82 40/42/82
f 39/45/83 44/51/83 45/47/83
f 40/42/84 45/47/84 59/49/84
f 37/46/85 42/48/85 43/50/85
f 38/44/86 43/50/86 44/51/86
f 43/50/87 48/9/87 1/11/87
f 44/51/88 1/11/88 49/1/88
f 45/47/89 49/1/89 60/7/89
f 43/50/90 42/48/90 47/4/90
g Sphere_Sphere.001_Material.003
usemtl Material.003
f 73/52/91 63/53/91 61/54/91
f 11/55/92 52/56/92 51/57/92
f 11/55/93 53/58/93 16/59/93
f 16/59/94 54/60/94 21/61/94
f 21/61/95 55/62/95 26/63/95
f 31/64/96 55/62/96 56/65/96
f 36/66/97 56/65/97 57/67/97
f 36/66/98 58/68/98 41/69/98
f 46/70/99 58/68/99 59/71/99
f 46/70/100 60/72/100 50/73/100
f 6/74/101 60/72/101 52/56/101
f 69/75/102 70/76/102 66/77/102
f 76/78/103 69/79/103 77/80/103
f 80/81/104 66/82/104 81/83/104
f 72/84/105 64/85/105 63/53/105
f 76/78/106 62/86/106 70/87/106
f 88/88/107 67/89/107 80/90/107
f 84/91/108 65/92/108 64/85/108
f 86/93/109 61/54/109 62/86/109
f 77/80/110 68/94/110 88/88/110
f 81/83/111 65/92/111 90/95/111
f 31/96/112 89/97/112 26/98/112
f 82/99/113 90/95/113 89/97/113
f 46/100/114 87/101/114 41/102/114
f 78/103/115 88/88/115 87/101/115
f 6/104/116 74/105/116 85/106/116
f 74/105/117 86/93/117 85/106/117
f 26/98/118 83/107/118 21/108/118
f 83/107/119 90/95/119 84/91/119
f 41/102/120 79/109/120 36/110/120
f 87/101/121 80/90/121 79/109/121
f 50/111/122 85/106/122 75/112/122
f 75/112/123 86/93/123 76/78/123
f 16/113/124 83/107/124 71/114/124
f 83/107/125 72/84/125 71/114/125
f 36/115/126 82/99/126 31/96/126
f 82/99/127 80/81/127 81/83/127
f 46/100/128 75/112/128 78/103/128
f 75/112/129 77/80/129 78/103/129
f 11/116/130 71/114/130 74/105/130
f 74/105/131 72/84/131 73/52/131
f 73/52/132 72/84/132 63/53/132
f 11/55/133 6/74/133 52/56/133
f 11/55/134 51/57/134 53/58/134
f 16/59/135 53/58/135 54/60/135
f 21/61/136 54/60/136 55/62/136
f 31/64/137 26/63/137 55/62/137
f 36/66/138 31/64/138 56/65/138
f 36/66/139 57/67/139 58/68/139
f 46/70/140 41/69/140 58/68/140
f 46/70/141 59/71/141 60/72/141
f 6/74/142 50/73/142 60/72/142
f 70/76/102 62/117/102 65/118/102
f 62/117/102 61/119/102 64/120/102
f 61/119/102 63/121/102 64/120/102
f 64/120/102 65/118/102 62/117/102
f 65/118/102 66/77/102 70/76/102
f 66/77/102 67/122/102 68/123/102
f 68/123/102 69/75/102 66/77/102
f 76/78/143 70/87/143 69/79/143
f 80/81/144 67/124/144 66/82/144
f 72/84/145 84/91/145 64/85/145
f 76/78/146 86/93/146 62/86/146
f 88/88/147 68/94/147 67/89/147
f 84/91/148 90/95/148 65/92/148
f 86/93/149 73/52/149 61/54/149
f 77/80/150 69/79/150 68/94/150
f 81/83/151 66/82/151 65/92/151
f 31/96/152 82/99/152 89/97/152
f 82/99/153 81/83/153 90/95/153
f 46/100/154 78/103/154 87/101/154
f 78/103/155 77/80/155 88/88/155
f 6/104/156 11/116/156 74/105/156
f 74/105/157 73/52/157 86/93/157
f 26/98/158 89/97/158 83/107/158
f 83/107/159 89/97/159 90/95/159
f 41/102/160 87/101/160 79/109/160
f 87/101/161 88/88/161 80/90/161
f 50/111/162 6/104/162 85/106/162
f 75/112/163 85/106/163 86/93/163
f 16/113/164 21/108/164 83/107/164
f 83/107/165 84/91/165 72/84/165
f 36/115/166 79/125/166 82/99/166
f 82/99/167 79/125/167 80/81/167
f 46/100/168 50/111/168 75/112/168
f 75/112/169 76/78/169 77/80/169
f 11/116/170 16/113/170 71/114/170
f 74/105/171 71/114/171 72/84/171
